<svg xmlns="http://www.w3.org/2000/svg" width="841.089" height="520.15" viewBox="0 0 841.089 520.15">
  <g id="aurora-marca-rgb_cores-padrao" transform="translate(-260.624 -198.212)">
    <path id="Caminho_540" data-name="Caminho 540" d="M664.664,331.124c-.551-27.356-17.59-45.707-44.945-50.406-6.406-1.1-56.733-10.16-80.939,25.6-3.912,5.8-5.881,9.215-4.962,12.313s14.256,8.716,15.568,8.716a8.27,8.27,0,0,0,7.141-4.831c14.544-25.151,46.494-22.525,59.149-19.454s20.845,11.368,23.129,23.628c1.733,9.4,1.733,15.752,1.733,29.22,0,0-26.726-2.783-40.745-2.783a171.753,171.753,0,0,0-30.3,2.494c-14.2,2.494-33.63,8.427-38.3,31.163a99.923,99.923,0,0,0-1,29.745c1.654,17.222,12.1,28.721,30.139,33.552,27.014,7.246,69.44,7.876,104.33-7.325Zm-24.127,91.414c0,3.1-1.286,4.647-5.251,6.275-9.267,3.7-57.757,9.687-74.06-3.492-6.852-5.513-9.845-24.179-4.069-37.253,10.974-24.757,83.433-11.761,83.433-11.761Z" transform="translate(437.049 131.137)" fill="#9b1982"/>
    <path id="Caminho_541" data-name="Caminho 541" d="M395.764,331.124c-.551-27.356-17.59-45.707-44.945-50.406-6.406-1.1-56.733-10.16-80.939,25.6-3.912,5.8-5.881,9.215-4.962,12.313s14.229,8.716,15.568,8.716a8.27,8.27,0,0,0,7.141-4.831c14.544-25.151,46.494-22.525,59.148-19.454s20.845,11.368,23.129,23.628c1.733,9.4,1.733,15.752,1.733,29.22,0,0-26.726-2.783-40.745-2.783a171.752,171.752,0,0,0-30.3,2.494c-14.2,2.494-33.63,8.427-38.3,31.163a99.924,99.924,0,0,0-1,29.745c1.654,17.222,12.1,28.721,30.139,33.552,27.015,7.246,69.44,7.876,104.33-7.325Zm-24.127,91.414c0,3.1-1.286,4.647-5.251,6.275-9.267,3.7-57.757,9.687-74.06-3.492-6.852-5.513-9.845-24.179-4.069-37.253,10.974-24.757,83.433-11.761,83.433-11.761Z" transform="translate(0 131.137)" fill="#9b1982"/>
    <path id="Caminho_542" data-name="Caminho 542" d="M568.593,336.027c-.945-24.941-17.38-57.337-71.12-57.337S427.535,309.2,426.38,332.877c-1.1,22.525-1.024,46.1.21,70.122,1.05,20.267,14.465,52.349,69.991,52.349s71.12-32.081,72.013-57.311C568.856,391.08,568.856,343.325,568.593,336.027Zm-118.139,4.017c.184-18.535,11-38.54,46.993-38.54s46.022,20.871,46.311,35.074c.472,21.948.5,41.454,0,59.542-.368,16.461-12.234,36.623-46.836,36.623s-46.179-20.871-46.494-37.175c-.026-6.616,0-49.435.052-55.526Z" transform="translate(268.146 130.802)" fill="#9b1982"/>
    <path id="Caminho_543" data-name="Caminho 543" d="M451.847,281h-13.7a5.513,5.513,0,0,0-5.487,5.487V413.159c0,8.611-.788,9.084-8.769,11.709-10.5,3.465-19.9,3.6-33.21,3.6-28.642,0-41.428-13.415-41.48-43.554v-98A5.881,5.881,0,0,0,343.316,281H330.557a5.881,5.881,0,0,0-5.907,5.907c0,.368.263,85.664.263,110.6,0,30.8,20.583,53.635,66.027,54.055,41.454.341,66.421-12.155,66.421-12.155V286.251A5.487,5.487,0,0,0,451.847,281Z" transform="translate(104.062 134.556)" fill="#9b1982"/>
    <path id="Caminho_544" data-name="Caminho 544" d="M470.563,280.52c-33,0-51.272,2.888-67.917,9.372-11.945,4.647-14.859,8.821-14.886,21.265V446.939h24.731V320.084c0-8.243.683-8.952,8.532-11.551,18.22-6.064,37.7-4.936,44.263-5.251h0a10.948,10.948,0,0,0,10.948-10.948V280.52Z" transform="translate(206.636 133.776)" fill="#9b1982"/>
    <path id="Caminho_545" data-name="Caminho 545" d="M575.673,280.52c-33,0-51.246,2.888-67.917,9.372-11.945,4.647-14.859,8.821-14.886,21.265V446.939H517.6V320.084c0-8.243.683-8.952,8.532-11.551,18.22-6.064,37.7-4.936,44.263-5.251h0a10.948,10.948,0,0,0,10.947-10.948V280.52Z" transform="translate(377.473 133.776)" fill="#9b1982"/>
    <path id="Caminho_546" data-name="Caminho 546" d="M776.961,360.425a166.393,166.393,0,0,0-332.681,0v6.826h4.988a15.463,15.463,0,0,0,15.437-14.466c.158-2.258.341-4.437.578-6.274a146.44,146.44,0,0,1,290.728,0c.236,1.838.42,4.017.578,6.275a15.463,15.463,0,0,0,15.437,14.465h4.936Z" transform="translate(298.499 0)" fill="#fae14b"/>
    <path id="Caminho_547" data-name="Caminho 547" d="M319.542,420.954a23.393,23.393,0,0,1-9.9-2.1,24.231,24.231,0,0,1-7.876-5.7,26.25,26.25,0,0,1-5.25-8.375,27.643,27.643,0,0,1-1.838-10.055,27.251,27.251,0,0,1,1.89-10.134,26.882,26.882,0,0,1,5.251-8.375,24.232,24.232,0,0,1,7.876-5.7,22.709,22.709,0,0,1,9.792-2.1,22.394,22.394,0,0,1,9.74,2.1,24.811,24.811,0,0,1,7.876,5.7,27.337,27.337,0,0,1,0,36.938,24.229,24.229,0,0,1-7.876,5.7A23.1,23.1,0,0,1,319.542,420.954Zm-19.9-26.017a22.477,22.477,0,0,0,1.575,8.427,22.078,22.078,0,0,0,4.227,6.878,19.98,19.98,0,0,0,6.3,4.621,18.193,18.193,0,0,0,15.384,0,19.609,19.609,0,0,0,6.353-4.726,23.444,23.444,0,0,0,4.279-23.943,21.847,21.847,0,0,0-4.279-6.9,20.482,20.482,0,0,0-6.3-4.726,16.829,16.829,0,0,0-7.64-1.759,17.145,17.145,0,0,0-7.692,1.759,19.663,19.663,0,0,0-6.3,4.778,23.63,23.63,0,0,0-4.279,7.062A22.838,22.838,0,0,0,299.642,394.937Z" transform="translate(55.351 276.641)" fill="#9b1982"/>
    <path id="Caminho_548" data-name="Caminho 548" d="M346.328,433.013a22,22,0,0,1-9.74-2.179,25.176,25.176,0,0,1-7.876-5.854,26.7,26.7,0,0,1-5.067-8.4,27.648,27.648,0,0,1-1.785-9.793,29.194,29.194,0,0,1,1.733-10.029,27.039,27.039,0,0,1,4.883-8.375,23.628,23.628,0,0,1,7.351-5.749,20.215,20.215,0,0,1,9.32-2.153,19.588,19.588,0,0,1,6.248.971,26.67,26.67,0,0,1,5.461,2.625,25.229,25.229,0,0,1,4.752,3.7,26.255,26.255,0,0,1,3.518,4.594V361h4.857v64.32q0,2.442,2.048,2.442v4.384l-.971.157H370.3a4.358,4.358,0,0,1-3.334-1.5,4.778,4.778,0,0,1-1.365-3.177v-5.723a23.393,23.393,0,0,1-8.322,8.086A21.4,21.4,0,0,1,346.328,433.013Zm.866-4.384a17.222,17.222,0,0,0,5.671-1.076,21.577,21.577,0,0,0,5.592-2.967,21.006,21.006,0,0,0,4.437-4.332A10.5,10.5,0,0,0,365.047,415V398.332a19.637,19.637,0,0,0-3.072-5.251,22.728,22.728,0,0,0-4.542-4.306,23.024,23.024,0,0,0-5.461-2.861,16.487,16.487,0,0,0-5.644-1.077,17.067,17.067,0,0,0-8.007,1.89,20.188,20.188,0,0,0-6.117,4.988,22.338,22.338,0,0,0-3.912,7.01,24.52,24.52,0,0,0-1.365,8.138,22.5,22.5,0,0,0,1.549,8.3,22.186,22.186,0,0,0,4.358,6.9,20.477,20.477,0,0,0,6.432,4.778,17.907,17.907,0,0,0,7.928,1.785Z" transform="translate(99.527 264.582)" fill="#9b1982"/>
    <path id="Caminho_549" data-name="Caminho 549" d="M374.752,420.954a23.394,23.394,0,0,1-9.9-2.1,24.233,24.233,0,0,1-7.876-5.7,26.255,26.255,0,0,1-5.251-8.375,27.645,27.645,0,0,1-1.838-10.055A27.171,27.171,0,0,1,357,376.218a24.233,24.233,0,0,1,7.876-5.7,22.709,22.709,0,0,1,9.792-2.1,22.394,22.394,0,0,1,9.74,2.1,24.81,24.81,0,0,1,7.876,5.7,26.542,26.542,0,0,1,5.251,8.375,27.435,27.435,0,0,1-5.251,28.564,24.231,24.231,0,0,1-7.876,5.7,23.1,23.1,0,0,1-9.661,2.1Zm-19.874-26.017a22.657,22.657,0,0,0,5.776,15.306,20.269,20.269,0,0,0,6.3,4.62,18.377,18.377,0,0,0,15.411,0,19.8,19.8,0,0,0,6.327-4.726,23.444,23.444,0,0,0,4.279-23.943,21.838,21.838,0,0,0-4.279-6.9,20.478,20.478,0,0,0-6.3-4.726,16.828,16.828,0,0,0-7.64-1.759,17.144,17.144,0,0,0-7.692,1.759,19.661,19.661,0,0,0-6.3,4.778,23.629,23.629,0,0,0-4.279,7.062,22.814,22.814,0,0,0-1.6,8.532Z" transform="translate(145.085 276.641)" fill="#9b1982"/>
    <path id="Caminho_550" data-name="Caminho 550" d="M419.868,419.964h-4.857V391.689a28.065,28.065,0,0,0-2.783-14.334,9.661,9.661,0,0,0-8.821-4.463,18.013,18.013,0,0,0-6.379,1.155,21.836,21.836,0,0,0-5.907,3.308,24.891,24.891,0,0,0-4.778,5.041,20.738,20.738,0,0,0-3.019,6.169v31.5H378.44v-50.8h4.594v12.1a23.419,23.419,0,0,1,3.859-5.251,25.234,25.234,0,0,1,5.251-4.1,27.205,27.205,0,0,1,6.091-2.625,24.435,24.435,0,0,1,6.642-.919,12.5,12.5,0,0,1,11.709,5.8,33.289,33.289,0,0,1,3.387,16.618Z" transform="translate(191.488 276.659)" fill="#9b1982"/>
    <path id="Caminho_551" data-name="Caminho 551" d="M430.607,427.747c-.263.131-.709.368-1.313.735a13.124,13.124,0,0,1-2.337,1.024,27.489,27.489,0,0,1-3.177.866,17.466,17.466,0,0,1-3.807.394,12.365,12.365,0,0,1-3.859-.577,9.055,9.055,0,0,1-3.15-1.759,8.219,8.219,0,0,1-2.153-2.835,8.927,8.927,0,0,1-.788-3.886V383.484H402.91v-3.99h7.115V362.14h4.883v17.353h11.867v3.99H414.987v37.043a4.936,4.936,0,0,0,1.943,4.253,7.3,7.3,0,0,0,4.384,1.418,12.289,12.289,0,0,0,5.251-1.024,27.216,27.216,0,0,0,2.625-1.313Z" transform="translate(231.26 266.435)" fill="#9b1982"/>
    <path id="Caminho_552" data-name="Caminho 552" d="M444.948,420.953a23.314,23.314,0,0,1-9.9-2.1,24.232,24.232,0,0,1-7.876-5.7,26.255,26.255,0,0,1-5.25-8.375,27.673,27.673,0,0,1-1.864-10.055,27.279,27.279,0,0,1,1.917-10.134,26.8,26.8,0,0,1,5.251-8.375,24.521,24.521,0,0,1,7.876-5.7,22.814,22.814,0,0,1,9.819-2.1,22.473,22.473,0,0,1,9.74,2.1,25.124,25.124,0,0,1,7.876,5.7,26.462,26.462,0,0,1,5.251,8.375,27.54,27.54,0,0,1,0,20.189,26.806,26.806,0,0,1-5.251,8.375,24.522,24.522,0,0,1-7.876,5.7,23.18,23.18,0,0,1-9.714,2.1Zm-19.795-26.017a23,23,0,0,0,1.549,8.427,22.627,22.627,0,0,0,4.253,6.878,20.162,20.162,0,0,0,6.275,4.621,18.011,18.011,0,0,0,7.719,1.706,17.826,17.826,0,0,0,7.692-1.706,19.507,19.507,0,0,0,6.327-4.726,22.791,22.791,0,0,0,4.305-6.957,24.048,24.048,0,0,0,0-16.986,21.919,21.919,0,0,0-4.305-6.9,20.687,20.687,0,0,0-6.275-4.725,16.908,16.908,0,0,0-7.64-1.759,17.326,17.326,0,0,0-7.718,1.759,19.849,19.849,0,0,0-6.275,4.778,23.628,23.628,0,0,0-5.907,15.594Z" transform="translate(259.134 276.641)" fill="#9b1982"/>
    <path id="Caminho_553" data-name="Caminho 553" d="M448.839,361H453.8v61.118a6.223,6.223,0,0,0,1.6,4.463,5.933,5.933,0,0,0,4.437,1.654,17.239,17.239,0,0,0,2.625-.236,13.122,13.122,0,0,0,2.783-.735l.971,3.912a22.479,22.479,0,0,1-4.1,1.129,24.313,24.313,0,0,1-4.2.42,8.847,8.847,0,0,1-6.563-2.468,8.978,8.978,0,0,1-2.625-6.695Z" transform="translate(305.728 264.582)" fill="#9b1982"/>
    <path id="Caminho_554" data-name="Caminho 554" d="M486.922,420.954a23.393,23.393,0,0,1-9.9-2.1,24.232,24.232,0,0,1-7.876-5.7,26.253,26.253,0,0,1-5.251-8.375,27.645,27.645,0,0,1-1.838-10.055,27.245,27.245,0,0,1,1.89-10.134,26.881,26.881,0,0,1,5.25-8.375,24.234,24.234,0,0,1,7.876-5.7,22.71,22.71,0,0,1,9.793-2.1,22.4,22.4,0,0,1,9.74,2.1,24.81,24.81,0,0,1,7.876,5.7,27.337,27.337,0,0,1,0,36.938,24.229,24.229,0,0,1-7.876,5.7,23.1,23.1,0,0,1-9.687,2.1Zm-19.769-26.017a22.473,22.473,0,0,0,1.575,8.427,22.077,22.077,0,0,0,4.227,6.879,19.975,19.975,0,0,0,6.3,4.62,18.193,18.193,0,0,0,15.384,0,19.9,19.9,0,0,0,6.353-4.726,23.445,23.445,0,0,0,4.279-23.943,21.846,21.846,0,0,0-4.279-6.9,20.792,20.792,0,0,0-6.3-4.726,16.829,16.829,0,0,0-7.64-1.759,17.144,17.144,0,0,0-7.692,1.759,19.663,19.663,0,0,0-6.3,4.778,23.63,23.63,0,0,0-4.279,7.062A22.834,22.834,0,0,0,467.153,394.937Z" transform="translate(327.397 276.641)" fill="#9b1982"/>
    <path id="Caminho_555" data-name="Caminho 555" d="M513.249,420.772a21.238,21.238,0,0,1-9.661-2.205,24.207,24.207,0,0,1-7.535-5.854,27.437,27.437,0,0,1-4.988-8.322,26.494,26.494,0,0,1-1.785-9.661,28.88,28.88,0,0,1,1.706-9.924,26.516,26.516,0,0,1,4.8-8.454,23.626,23.626,0,0,1,7.456-5.776,21.343,21.343,0,0,1,9.609-2.153,19.558,19.558,0,0,1,11.551,3.465,33.5,33.5,0,0,1,8.349,8.427V369.289h4.463v51.666a19.822,19.822,0,0,1-1.943,9.057,18.641,18.641,0,0,1-5.251,6.484,22.6,22.6,0,0,1-7.587,3.912,31.5,31.5,0,0,1-9.11,1.313,34.418,34.418,0,0,1-7.876-.84,23.053,23.053,0,0,1-6.2-2.337,19.933,19.933,0,0,1-4.778-3.7,26.52,26.52,0,0,1-3.649-4.831l3.308-2.232a18.378,18.378,0,0,0,8.191,7.561,26.252,26.252,0,0,0,11.026,2.389,24.886,24.886,0,0,0,7.351-1.076,17.691,17.691,0,0,0,6.038-3.177,14.778,14.778,0,0,0,4.1-5.251,16.515,16.515,0,0,0,1.523-7.325V409.851a23.313,23.313,0,0,1-8.3,7.876,21.213,21.213,0,0,1-10.816,3.045Zm1.181-4.2a16.882,16.882,0,0,0,6.275-1.208,22.707,22.707,0,0,0,5.566-3.177,18.951,18.951,0,0,0,4.1-4.384,12.836,12.836,0,0,0,2-4.883V386.249a22.657,22.657,0,0,0-3.124-5.408,21,21,0,0,0-4.437-4.227,21.654,21.654,0,0,0-5.251-2.783,17.694,17.694,0,0,0-13.993.919,19.718,19.718,0,0,0-6.09,5.067,23.207,23.207,0,0,0-3.807,7.062,25.488,25.488,0,0,0-1.313,7.876,22.341,22.341,0,0,0,5.855,15.2,19.9,19.9,0,0,0,6.432,4.778,18.036,18.036,0,0,0,7.8,1.838Z" transform="translate(371.639 276.639)" fill="#9b1982"/>
    <path id="Caminho_556" data-name="Caminho 556" d="M518.53,369.847V361h4.883v8.952Zm0,62.194V381.346h4.883v50.695Z" transform="translate(419.179 264.582)" fill="#9b1982"/>
    <path id="Caminho_557" data-name="Caminho 557" d="M546.491,420.989a17.144,17.144,0,0,1-11.84-4.542,14.991,14.991,0,0,1-3.57-4.962,15.2,15.2,0,0,1-1.26-6.2,11.84,11.84,0,0,1,1.575-6.038,14.756,14.756,0,0,1,4.332-4.725A21.477,21.477,0,0,1,542.4,391.4a31.509,31.509,0,0,1,8.585-1.1,49.027,49.027,0,0,1,8.191.683,42.7,42.7,0,0,1,7.456,2v-4.962a15.752,15.752,0,0,0-4.1-11.446,14.727,14.727,0,0,0-11.131-4.253,21.975,21.975,0,0,0-7.876,1.575,38.352,38.352,0,0,0-8.453,4.489l-1.838-3.334a33.208,33.208,0,0,1,18.508-6.616,19.4,19.4,0,0,1,14.439,5.251,20.005,20.005,0,0,1,5.25,14.676v24.757c0,1.628.709,2.441,2.153,2.441v4.384l-1.024.158h-.919a3.912,3.912,0,0,1-3.124-1.313,5.381,5.381,0,0,1-1.365-3.15v-4.2a22.814,22.814,0,0,1-8.979,7.01A28.459,28.459,0,0,1,546.491,420.989Zm.971-3.886a25.046,25.046,0,0,0,10.5-2.153,17.748,17.748,0,0,0,7.246-5.644,6.54,6.54,0,0,0,1.576-3.912v-8.979a42.008,42.008,0,0,0-7.325-2.048,45.4,45.4,0,0,0-7.876-.683,26.879,26.879,0,0,0-6.9.84,18.194,18.194,0,0,0-5.251,2.284,10.684,10.684,0,0,0-3.465,3.57A9,9,0,0,0,534.73,405a12.125,12.125,0,0,0,.971,4.778,11.578,11.578,0,0,0,2.625,3.859,13.123,13.123,0,0,0,4.148,2.625,13.861,13.861,0,0,0,4.988.971Z" transform="translate(437.528 276.605)" fill="#9b1982"/>
  </g>
</svg>
