<svg xmlns="http://www.w3.org/2000/svg" xmlns:xlink="http://www.w3.org/1999/xlink" width="923" height="572" viewBox="0 0 923 572">
  <defs>
    <clipPath id="clip-logo">
      <rect width="923" height="572"/>
    </clipPath>
  </defs>
  <g id="logo" clip-path="url(#clip-logo)">
    <g id="aurora-marca-rgb_negativo" transform="translate(-233.039 -180.556)">
      <path id="Caminho_522" data-name="Caminho 522" d="M668.961,332.784c-.569-28.226-18.149-47.16-46.375-52.009-6.609-1.138-58.537-10.483-83.512,26.411-4.036,5.986-6.068,9.508-5.12,12.7s14.709,8.993,16.063,8.993a8.533,8.533,0,0,0,7.368-4.984c15.007-25.95,47.973-23.241,61.029-20.072s21.508,11.729,23.864,24.379c1.788,9.7,1.788,16.253,1.788,30.149,0,0-27.575-2.871-42.04-2.871a177.21,177.21,0,0,0-31.259,2.573c-14.654,2.573-34.7,8.7-39.521,32.153a103.1,103.1,0,0,0-1.029,30.691c1.706,17.77,12.487,29.634,31.1,34.618,27.873,7.476,71.648,8.126,107.647-7.558ZM644.067,427.1c0,3.2-1.327,4.794-5.418,6.474-9.562,3.819-59.593,10-76.415-3.6-7.07-5.688-10.158-24.948-4.2-38.438,11.323-25.544,86.085-12.135,86.085-12.135Z" transform="translate(459.493 137.871)" fill="#fff"/>
      <path id="Caminho_523" data-name="Caminho 523" d="M400.061,332.784c-.569-28.226-18.149-47.16-46.374-52.009-6.609-1.138-58.537-10.483-83.512,26.411-4.036,5.986-6.068,9.508-5.12,12.7s14.682,8.993,16.063,8.993a8.533,8.533,0,0,0,7.368-4.984c15.007-25.95,47.973-23.241,61.029-20.072s21.508,11.729,23.864,24.379c1.788,9.7,1.788,16.253,1.788,30.149,0,0-27.575-2.871-42.04-2.871a177.209,177.209,0,0,0-31.259,2.573c-14.655,2.573-34.7,8.7-39.521,32.153a103.1,103.1,0,0,0-1.029,30.691c1.707,17.77,12.487,29.634,31.1,34.618,27.873,7.476,71.647,8.126,107.647-7.558ZM375.167,427.1c0,3.2-1.327,4.794-5.418,6.474-9.562,3.819-59.593,10-76.415-3.6-7.07-5.688-10.158-24.948-4.2-38.438,11.323-25.544,86.085-12.135,86.085-12.135Z" transform="translate(0 137.871)" fill="#fff"/>
      <path id="Caminho_524" data-name="Caminho 524" d="M573.139,337.85c-.975-25.733-17.932-59.16-73.381-59.16S427.6,310.166,426.4,334.6c-1.138,23.241-1.056,47.566.217,72.352,1.083,20.912,14.925,54.013,72.216,54.013s73.381-33.1,74.3-59.133C573.41,394.653,573.41,345.38,573.139,337.85Zm-121.9,4.144c.19-19.124,11.35-39.765,48.487-39.765s47.485,21.535,47.783,36.189c.488,22.645.515,42.772,0,61.435-.379,16.984-12.623,37.788-48.325,37.788s-47.648-21.535-47.973-38.356c-.027-6.826,0-51.006.054-57.291Z" transform="translate(281.917 137.519)" fill="#fff"/>
      <path id="Caminho_525" data-name="Caminho 525" d="M455.891,281h-14.14a5.688,5.688,0,0,0-5.661,5.661v130.7c0,8.885-.813,9.372-9.047,12.081-10.835,3.576-20.533,3.711-34.266,3.711-29.553,0-42.745-13.842-42.8-44.939V287.095A6.068,6.068,0,0,0,343.91,281H330.745a6.068,6.068,0,0,0-6.095,6.095c0,.379.271,88.388.271,114.121,0,31.774,21.237,55.34,68.126,55.774,42.772.352,68.532-12.542,68.532-12.542V286.418A5.661,5.661,0,0,0,455.891,281Z" transform="translate(109.406 141.466)" fill="#fff"/>
      <path id="Caminho_526" data-name="Caminho 526" d="M473.2,280.52c-34.049,0-52.9,2.98-70.076,9.67-12.325,4.794-15.332,9.1-15.359,21.941v140.1h25.517V321.341c0-8.506.7-9.237,8.8-11.919,18.8-6.257,38.9-5.092,45.67-5.418h0a11.3,11.3,0,0,0,11.3-11.3V280.52Z" transform="translate(217.248 140.646)" fill="#fff"/>
      <path id="Caminho_527" data-name="Caminho 527" d="M578.305,280.52c-34.049,0-52.875,2.98-70.076,9.67-12.325,4.794-15.332,9.1-15.359,21.941v140.1h25.517V321.341c0-8.506.7-9.237,8.8-11.919,18.8-6.257,38.9-5.092,45.67-5.418h0a11.3,11.3,0,0,0,11.3-11.3V280.52Z" transform="translate(396.858 140.646)" fill="#fff"/>
      <path id="Caminho_528" data-name="Caminho 528" d="M787.537,365.582a171.683,171.683,0,0,0-343.257,0v7.043h5.147A15.955,15.955,0,0,0,465.354,357.7c.163-2.329.352-4.578.6-6.474a151.1,151.1,0,0,1,299.971,0c.244,1.9.433,4.144.6,6.474a15.955,15.955,0,0,0,15.928,14.925h5.093Z" transform="translate(313.828)" fill="#fae14b"/>
      <path id="Caminho_529" data-name="Caminho 529" d="M320.333,422.624a24.137,24.137,0,0,1-10.212-2.167,25,25,0,0,1-8.126-5.878,27.088,27.088,0,0,1-5.418-8.641,28.521,28.521,0,0,1-1.9-10.375,28.117,28.117,0,0,1,1.95-10.456,27.737,27.737,0,0,1,5.418-8.641,25,25,0,0,1,8.126-5.878,23.431,23.431,0,0,1,10.1-2.167,23.107,23.107,0,0,1,10.05,2.167,25.6,25.6,0,0,1,8.126,5.878,28.206,28.206,0,0,1,0,38.113,25,25,0,0,1-8.126,5.878A23.838,23.838,0,0,1,320.333,422.624ZM299.8,395.78a23.189,23.189,0,0,0,1.625,8.7,22.778,22.778,0,0,0,4.361,7.1,20.615,20.615,0,0,0,6.5,4.767,18.771,18.771,0,0,0,15.873,0,20.233,20.233,0,0,0,6.555-4.876,24.19,24.19,0,0,0,4.415-24.7,22.539,22.539,0,0,0-4.415-7.124,21.131,21.131,0,0,0-6.5-4.876,17.363,17.363,0,0,0-7.883-1.815,17.69,17.69,0,0,0-7.937,1.815,20.286,20.286,0,0,0-6.5,4.93,24.383,24.383,0,0,0-4.415,7.287A23.565,23.565,0,0,0,299.8,395.78Z" transform="translate(58.193 290.848)" fill="#fff"/>
      <path id="Caminho_530" data-name="Caminho 530" d="M347.106,435.3a22.7,22.7,0,0,1-10.05-2.248,25.978,25.978,0,0,1-8.126-6.041,27.549,27.549,0,0,1-5.228-8.668,28.525,28.525,0,0,1-1.842-10.1,30.122,30.122,0,0,1,1.788-10.348,27.9,27.9,0,0,1,5.038-8.641,24.38,24.38,0,0,1,7.585-5.932,20.859,20.859,0,0,1,9.616-2.221,20.21,20.21,0,0,1,6.447,1,27.515,27.515,0,0,1,5.634,2.709,26.029,26.029,0,0,1,4.9,3.819,27.091,27.091,0,0,1,3.63,4.74V361h5.011v66.365q0,2.519,2.113,2.519v4.524l-1,.162h-.786a4.5,4.5,0,0,1-3.44-1.544,4.93,4.93,0,0,1-1.409-3.278v-5.905a24.137,24.137,0,0,1-8.587,8.343A22.078,22.078,0,0,1,347.106,435.3Zm.894-4.524a17.769,17.769,0,0,0,5.851-1.111,22.268,22.268,0,0,0,5.77-3.061,21.674,21.674,0,0,0,4.578-4.47,10.836,10.836,0,0,0,2.221-5.418v-17.2a20.262,20.262,0,0,0-3.169-5.418,23.457,23.457,0,0,0-4.686-4.443,23.757,23.757,0,0,0-5.634-2.952,17.012,17.012,0,0,0-5.824-1.111,17.609,17.609,0,0,0-8.262,1.95,20.831,20.831,0,0,0-6.311,5.147,23.051,23.051,0,0,0-4.036,7.233,25.3,25.3,0,0,0-1.408,8.4,23.215,23.215,0,0,0,1.6,8.56,22.89,22.89,0,0,0,4.5,7.124,21.127,21.127,0,0,0,6.637,4.93,18.476,18.476,0,0,0,8.18,1.842Z" transform="translate(104.638 278.169)" fill="#fff"/>
      <path id="Caminho_531" data-name="Caminho 531" d="M375.542,422.624a24.137,24.137,0,0,1-10.212-2.167,25,25,0,0,1-8.126-5.878,27.088,27.088,0,0,1-5.418-8.641,28.524,28.524,0,0,1-1.9-10.375,28.035,28.035,0,0,1,7.341-19.1,25,25,0,0,1,8.126-5.878,23.431,23.431,0,0,1,10.1-2.167,23.107,23.107,0,0,1,10.05,2.167,25.6,25.6,0,0,1,8.126,5.878,27.385,27.385,0,0,1,5.418,8.641,28.307,28.307,0,0,1-5.418,29.472,25,25,0,0,1-8.126,5.878,23.839,23.839,0,0,1-9.968,2.167ZM355.037,395.78A23.377,23.377,0,0,0,361,411.572a20.912,20.912,0,0,0,6.5,4.767,18.962,18.962,0,0,0,15.9,0,20.425,20.425,0,0,0,6.528-4.876,24.19,24.19,0,0,0,4.415-24.7,22.534,22.534,0,0,0-4.415-7.124,21.129,21.129,0,0,0-6.5-4.876,17.363,17.363,0,0,0-7.883-1.815,17.689,17.689,0,0,0-7.937,1.815,20.285,20.285,0,0,0-6.5,4.93,24.38,24.38,0,0,0-4.415,7.287,23.539,23.539,0,0,0-1.652,8.8Z" transform="translate(152.536 290.848)" fill="#fff"/>
      <path id="Caminho_532" data-name="Caminho 532" d="M421.185,421.6h-5.011V392.429a28.957,28.957,0,0,0-2.871-14.79,9.968,9.968,0,0,0-9.1-4.605,18.585,18.585,0,0,0-6.582,1.192,22.53,22.53,0,0,0-6.095,3.413,25.684,25.684,0,0,0-4.93,5.2,21.4,21.4,0,0,0-3.115,6.366v32.505H378.44V369.3h4.74v12.487a24.163,24.163,0,0,1,3.982-5.418,26.033,26.033,0,0,1,5.418-4.226,28.069,28.069,0,0,1,6.284-2.709,25.215,25.215,0,0,1,6.853-.948,12.894,12.894,0,0,1,12.081,5.986,34.346,34.346,0,0,1,3.494,17.146Z" transform="translate(201.322 290.867)" fill="#fff"/>
      <path id="Caminho_533" data-name="Caminho 533" d="M431.488,429.832c-.271.135-.731.379-1.354.758a13.543,13.543,0,0,1-2.411,1.056,28.375,28.375,0,0,1-3.278.894,18.023,18.023,0,0,1-3.928.406,12.757,12.757,0,0,1-3.982-.6,9.344,9.344,0,0,1-3.251-1.815,8.479,8.479,0,0,1-2.221-2.926,9.21,9.21,0,0,1-.813-4.009v-39.44H402.91v-4.117h7.341V362.14h5.038v17.905h12.244v4.117H415.37v38.221a5.092,5.092,0,0,0,2,4.388,7.531,7.531,0,0,0,4.524,1.463,12.679,12.679,0,0,0,5.417-1.057,28.06,28.06,0,0,0,2.709-1.354Z" transform="translate(243.136 280.117)" fill="#fff"/>
      <path id="Caminho_534" data-name="Caminho 534" d="M445.739,422.624a24.056,24.056,0,0,1-10.212-2.167,25,25,0,0,1-8.126-5.878,27.088,27.088,0,0,1-5.417-8.641,28.551,28.551,0,0,1-1.923-10.375,28.144,28.144,0,0,1,1.977-10.456,27.655,27.655,0,0,1,5.418-8.641,25.3,25.3,0,0,1,8.126-5.878,23.538,23.538,0,0,1,10.131-2.167,23.187,23.187,0,0,1,10.05,2.167,25.925,25.925,0,0,1,8.126,5.878,27.3,27.3,0,0,1,5.417,8.641,28.415,28.415,0,0,1,0,20.831,27.656,27.656,0,0,1-5.418,8.641,25.3,25.3,0,0,1-8.126,5.878,23.917,23.917,0,0,1-10.023,2.167ZM425.315,395.78a23.728,23.728,0,0,0,1.6,8.7,23.345,23.345,0,0,0,4.388,7.1,20.8,20.8,0,0,0,6.474,4.768,18.585,18.585,0,0,0,7.964,1.761,18.392,18.392,0,0,0,7.937-1.761,20.128,20.128,0,0,0,6.528-4.876,23.516,23.516,0,0,0,4.442-7.178,24.813,24.813,0,0,0,0-17.526,22.618,22.618,0,0,0-4.442-7.124,21.346,21.346,0,0,0-6.474-4.876,17.444,17.444,0,0,0-7.883-1.815,17.878,17.878,0,0,0-7.964,1.815,20.481,20.481,0,0,0-6.474,4.93,24.38,24.38,0,0,0-6.095,16.09Z" transform="translate(272.441 290.848)" fill="#fff"/>
      <path id="Caminho_535" data-name="Caminho 535" d="M448.843,361h5.12V424.06a6.421,6.421,0,0,0,1.652,4.6,6.122,6.122,0,0,0,4.578,1.707,17.792,17.792,0,0,0,2.709-.244,13.543,13.543,0,0,0,2.871-.759l1,4.036a23.2,23.2,0,0,1-4.226,1.165,25.1,25.1,0,0,1-4.334.433,9.128,9.128,0,0,1-6.772-2.546,9.264,9.264,0,0,1-2.709-6.907Z" transform="translate(321.428 278.169)" fill="#fff"/>
      <path id="Caminho_536" data-name="Caminho 536" d="M487.712,422.624a24.137,24.137,0,0,1-10.212-2.167,25,25,0,0,1-8.126-5.878,27.085,27.085,0,0,1-5.417-8.641,28.519,28.519,0,0,1-1.9-10.375,28.116,28.116,0,0,1,1.95-10.456,27.738,27.738,0,0,1,5.417-8.641,25,25,0,0,1,8.126-5.878,23.431,23.431,0,0,1,10.1-2.167,23.107,23.107,0,0,1,10.05,2.167,25.6,25.6,0,0,1,8.126,5.878,28.207,28.207,0,0,1,0,38.113,25,25,0,0,1-8.126,5.878,23.839,23.839,0,0,1-10,2.167Zm-20.4-26.844a23.192,23.192,0,0,0,1.625,8.7,22.78,22.78,0,0,0,4.361,7.1,20.612,20.612,0,0,0,6.5,4.767,18.772,18.772,0,0,0,15.874,0,20.535,20.535,0,0,0,6.555-4.876,24.19,24.19,0,0,0,4.415-24.7,22.543,22.543,0,0,0-4.415-7.124,21.452,21.452,0,0,0-6.5-4.876,17.364,17.364,0,0,0-7.882-1.815,17.689,17.689,0,0,0-7.937,1.815,20.285,20.285,0,0,0-6.5,4.93,24.38,24.38,0,0,0-4.415,7.287A23.566,23.566,0,0,0,467.315,395.78Z" transform="translate(344.21 290.848)" fill="#fff"/>
      <path id="Caminho_537" data-name="Caminho 537" d="M514.011,422.436a21.912,21.912,0,0,1-9.968-2.275,24.976,24.976,0,0,1-7.774-6.041,28.305,28.305,0,0,1-5.147-8.587,27.336,27.336,0,0,1-1.842-9.968,29.8,29.8,0,0,1,1.761-10.239A27.359,27.359,0,0,1,496,376.6a24.378,24.378,0,0,1,7.693-5.959,22.023,22.023,0,0,1,9.914-2.221A20.179,20.179,0,0,1,525.524,372a34.563,34.563,0,0,1,8.614,8.7V369.317h4.6v53.309a20.452,20.452,0,0,1-2,9.345,19.234,19.234,0,0,1-5.418,6.691,23.324,23.324,0,0,1-7.828,4.036,32.5,32.5,0,0,1-9.4,1.354,35.516,35.516,0,0,1-8.126-.867,23.785,23.785,0,0,1-6.393-2.411,20.563,20.563,0,0,1-4.93-3.82,27.357,27.357,0,0,1-3.765-4.984l3.413-2.3a18.962,18.962,0,0,0,8.452,7.8,27.085,27.085,0,0,0,11.377,2.465,25.682,25.682,0,0,0,7.585-1.111,18.254,18.254,0,0,0,6.23-3.278,15.251,15.251,0,0,0,4.226-5.418,17.039,17.039,0,0,0,1.571-7.558v-11.4a24.053,24.053,0,0,1-8.56,8.126,21.888,21.888,0,0,1-11.16,3.142Zm1.219-4.334a17.419,17.419,0,0,0,6.474-1.246,23.427,23.427,0,0,0,5.743-3.278,19.557,19.557,0,0,0,4.226-4.524,13.247,13.247,0,0,0,2.059-5.038v-17.2a23.374,23.374,0,0,0-3.224-5.58,21.67,21.67,0,0,0-4.578-4.361A22.348,22.348,0,0,0,520.512,374a18.257,18.257,0,0,0-14.438.948,20.347,20.347,0,0,0-6.284,5.228,23.946,23.946,0,0,0-3.928,7.287,26.3,26.3,0,0,0-1.354,8.126,23.052,23.052,0,0,0,6.041,15.684,20.53,20.53,0,0,0,6.637,4.93,18.609,18.609,0,0,0,8.045,1.9Z" transform="translate(390.724 290.845)" fill="#fff"/>
      <path id="Caminho_538" data-name="Caminho 538" d="M518.53,370.129V361h5.038v9.237Zm0,64.171V381.993h5.038V434.3Z" transform="translate(440.706 278.169)" fill="#fff"/>
      <path id="Caminho_539" data-name="Caminho 539" d="M547.021,422.661a17.689,17.689,0,0,1-12.217-4.686,15.471,15.471,0,0,1-3.684-5.12,15.686,15.686,0,0,1-1.3-6.393,12.217,12.217,0,0,1,1.625-6.23,15.225,15.225,0,0,1,4.469-4.876,22.158,22.158,0,0,1,6.88-3.223A32.51,32.51,0,0,1,551.654,391a50.582,50.582,0,0,1,8.451.7,44.063,44.063,0,0,1,7.693,2.059v-5.12a16.252,16.252,0,0,0-4.225-11.81,15.2,15.2,0,0,0-11.485-4.388,22.675,22.675,0,0,0-8.126,1.625,39.571,39.571,0,0,0-8.722,4.632l-1.9-3.44a34.264,34.264,0,0,1,19.1-6.826,20.017,20.017,0,0,1,14.9,5.418,20.641,20.641,0,0,1,5.418,15.142v25.544c0,1.679.731,2.519,2.221,2.519v4.524l-1.057.163h-.948a4.036,4.036,0,0,1-3.223-1.354,5.553,5.553,0,0,1-1.409-3.251V412.8a23.539,23.539,0,0,1-9.264,7.232A29.363,29.363,0,0,1,547.021,422.661Zm1-4.009a25.843,25.843,0,0,0,10.835-2.221,18.312,18.312,0,0,0,7.476-5.824,6.746,6.746,0,0,0,1.625-4.036v-9.264a43.338,43.338,0,0,0-7.558-2.113,46.837,46.837,0,0,0-8.126-.7,27.737,27.737,0,0,0-7.124.867,18.778,18.778,0,0,0-5.418,2.357,11.025,11.025,0,0,0-3.576,3.684,9.29,9.29,0,0,0-1.273,4.767,12.51,12.51,0,0,0,1,4.93,11.945,11.945,0,0,0,2.709,3.982,13.542,13.542,0,0,0,4.28,2.709,14.3,14.3,0,0,0,5.147,1Z" transform="translate(459.997 290.81)" fill="#fff"/>
    </g>
  </g>
</svg>
